<svg xmlns="http://www.w3.org/2000/svg" width="760" height="184" viewBox="0 0 760 184" role="img" aria-labelledby="title desc">
  <title id="title">HealthCompass MA logo for dark backgrounds</title>
  <desc id="desc">HealthCompass MA wordmark with a shield, compass needle, and heart symbol for dark UI surfaces.</desc>
  <defs>
    <clipPath id="hcma-logo-dark-shield-clip">
      <path d="M72 26l53 21v43c0 38-25 59-53 76-28-17-53-38-53-76V47z" />
    </clipPath>
  </defs>
  <rect width="760" height="184" rx="24" fill="#0a2624" />
  <g transform="translate(20 12)">
    <circle cx="72" cy="80" r="69" fill="#123b3a" />
    <circle cx="72" cy="80" r="59" fill="#0d302e" stroke="#6ee7d8" stroke-width="7" />
    <g clip-path="url(#hcma-logo-dark-shield-clip)">
      <path d="M72 26l53 21v43c0 38-25 59-53 76-28-17-53-38-53-76V47z" fill="#6ee7d8" />
      <path d="M72 26l53 21v43c0 38-25 59-53 76z" fill="#36c2b6" />
      <path d="M72 42l40 16v32c0 27-17 44-40 59-23-15-40-32-40-59V58z" fill="#0a2624" />
      <path d="M72 42l40 16v32c0 27-17 44-40 59z" fill="#0d302e" />
    </g>
    <path d="M72 26l53 21v43c0 38-25 59-53 76-28-17-53-38-53-76V47z" fill="none" stroke="#e7f4f1" stroke-width="5" stroke-linejoin="round" />
    <path d="M92 50L80 95l-26 34 12-45z" fill="#ff8a75" />
    <path d="M92 50L66 84l-12 45 26-34z" fill="#e96f5b" opacity=".8" />
    <circle cx="72" cy="90" r="13" fill="#0a2624" stroke="#e7f4f1" stroke-width="4" />
    <path d="M72 105s-19-12-19-24c0-8 7-15 15-15 4 0 8 2 11 5 3-3 7-5 11-5 8 0 15 7 15 15 0 12-19 24-19 24z" fill="#ff8a75" stroke="#0a2624" stroke-width="5" stroke-linejoin="round" />
    <path d="M39 91H28M116 91h-11M72 58V47M72 133v-11" stroke="#e7f4f1" stroke-width="5" stroke-linecap="round" />
  </g>
  <g transform="translate(184 44)">
    <text x="0" y="47" font-family="Inter, ui-sans-serif, system-ui, -apple-system, BlinkMacSystemFont, 'Segoe UI', sans-serif" font-size="48" font-weight="760" letter-spacing="0" fill="#f7fbfa">HealthCompass</text>
    <text x="396" y="47" font-family="Inter, ui-sans-serif, system-ui, -apple-system, BlinkMacSystemFont, 'Segoe UI', sans-serif" font-size="48" font-weight="760" letter-spacing="0" fill="#6ee7d8">MA</text>
    <rect x="0" y="65" width="418" height="2" rx="1" fill="#1f4f4b" />
    <text x="0" y="98" font-family="Inter, ui-sans-serif, system-ui, -apple-system, BlinkMacSystemFont, 'Segoe UI', sans-serif" font-size="21" font-weight="560" letter-spacing=".4" fill="#b8d7d3">Massachusetts benefits navigation</text>
  </g>
</svg>
