<svg xmlns="http://www.w3.org/2000/svg" viewBox="0 0 64 64" fill="none">
  <rect width="64" height="64" rx="14" fill="#0f766e" />
  <path
    d="M32 10L48 16.4V29.2C48 40.4 40 46.8 32 51.6C24 46.8 16 40.4 16 29.2V16.4L32 10Z"
    stroke="#ffffff"
    stroke-width="3"
    stroke-linecap="round"
    stroke-linejoin="round"
  />
  <path
    d="M32 39C32 39 25.6 35 25.6 31C25.6 28.349 27.749 26.2 30.4 26.2C31.617 26.2 32.728 26.653 33.6 27.4C34.472 26.653 35.583 26.2 36.8 26.2C39.451 26.2 41.6 28.349 41.6 31C41.6 35 35.2 39 35.2 39H32Z"
    fill="#e96f5b"
  />
</svg>
