<svg xmlns="http://www.w3.org/2000/svg" width="180" height="180" viewBox="0 0 180 180" fill="none">
  <rect width="180" height="180" rx="40" fill="#0f766e" />
  <path
    d="M90 30L136 48.4V85.2C136 117.4 113 135.8 90 149.6C67 135.8 44 117.4 44 85.2V48.4L90 30Z"
    stroke="#ffffff"
    stroke-width="8"
    stroke-linecap="round"
    stroke-linejoin="round"
  />
  <path
    d="M90 112C90 112 71.6 100.5 71.6 89C71.6 81.3825 77.7825 75.2 85.4 75.2C88.896 75.2 92.087 76.5005 94.6 78.646C97.113 76.5005 100.304 75.2 103.8 75.2C111.417 75.2 117.6 81.3825 117.6 89C117.6 100.5 99.2 112 99.2 112H90Z"
    fill="#e96f5b"
  />
</svg>
